# xmcd
# 
# Track frame offsets:
#     150
#     17213
#     30122
#     52638
#     64120
#     79962
#     99478
#     112126
#     126486
#     144869
#     164838
#     189008
#     203833
# 
# Disc length: 2948
# 
# Revision: 0
# Processed by: cddbd v1.5.2PL0 Copyright (c) Steve Scherf et al.
# Submitted via: fre:ac v1.1beta1pre4
# 
DISCID=a90b820d
DTITLE=Big Mama Monste and Sister Marion - Juke Joint Sessions
DYEAR=2016
DGENRE=Blues
TTITLE0=Ain't got no (I got life)
TTITLE1=Ready to say goodbye
TTITLE2=Sadness in my skin
TTITLE3=Crazy for your lovi'n smile
TTITLE4=5-10-15 hours
TTITLE5=People to get ready
TTITLE6=Snatch and grab it
TTITLE7=I wonder why
TTITLE8=Suspicious woman
TTITLE9=The feeling the music brings
TTITLE10=Since I fell for you
TTITLE11=Dancing in Mississippi
TTITLE12=Why don't you do right
EXTD=
EXTT0=
EXTT1=
EXTT2=
EXTT3=
EXTT4=
EXTT5=
EXTT6=
EXTT7=
EXTT8=
EXTT9=
EXTT10=
EXTT11=
EXTT12=
PLAYORDER=
